Coordinates
version=1
nRows=13
nColumns=34
inDegrees=yes

Units are S.I. units (second, meters, Newtons, ...)
If the header above contains a line with 'inDegrees', this indicates whether rotational values are in degrees (yes) or radians (no).

endheader
time	pelvis_tilt	pelvis_list	pelvis_rotation	pelvis_tx	pelvis_ty	pelvis_tz	hip_flexion_r	hip_adduction_r	hip_rotation_r	knee_angle_r	ankle_angle_r	subtalar_angle_r	mtp_angle_r	hip_flexion_l	hip_adduction_l	hip_rotation_l	knee_angle_l	ankle_angle_l	subtalar_angle_l	mtp_angle_l	lumbar_extension	lumbar_bending	lumbar_rotation	arm_flex_r	arm_add_r	arm_rot_r	elbow_flex_r	pro_sup_r	arm_flex_l	arm_add_l	arm_rot_l	elbow_flex_l	pro_sup_l
      2.23333330	     -0.79025918	      3.62512425	     -4.10609471	     -0.02285045	      0.79629291	      0.08697319	     38.89230673	      4.53821364	     -8.11996704	     72.30666836	    -50.00000000	    -33.97429126	      0.00000000	     44.76587722	     -2.13271174	    -10.93666192	      0.00000000	    -40.80116783	    -14.56491559	      0.00000000	    -28.45724542	      1.35866649	      0.98159355	     58.08038267	      4.74058761	     63.69881714	    128.61387193	     96.51910586	     72.93123312	     15.59474892	     75.80641562	    126.24130664	     72.87253961
      2.25000000	     -0.97879296	      3.77309150	     -4.12066551	     -0.01844385	      0.79945874	      0.08774916	     38.28152082	      4.41626465	     -8.04511112	     71.04191439	    -50.00000000	    -35.00000000	      0.00000000	     44.65345299	     -2.02773082	    -10.77551862	      0.00000000	    -41.11387475	    -13.88538894	      0.00000000	    -28.32478385	      1.14455588	      0.98793568	     57.64546858	      4.95489861	     64.01376157	    128.94965543	     96.50121371	     72.83899801	     15.75741076	     76.03996642	    126.14792585	     72.86447088
      2.26666670	     -1.09789129	      3.65516674	     -4.36307819	     -0.01716006	      0.80641166	      0.08962511	     37.07576775	      4.63988037	     -8.07407585	     69.24642823	    -50.00000000	    -35.00000000	      0.00000000	     44.65208744	     -2.29030174	    -10.91987244	      0.00000000	    -40.77632381	    -13.98125631	      0.00000000	    -28.14623210	      1.10145630	      1.24748135	     57.04026167	      4.87390812	     63.97455851	    129.01499417	     96.45788704	     72.29893229	     16.00113327	     76.46672961	    126.21275219	     72.85918811
      2.28333330	     -0.73114296	      4.09059528	     -4.18001041	     -0.01113813	      0.81004936	      0.09061891	     35.56024987	      4.00228841	     -8.15804363	     68.25900375	    -45.97082755	    -35.00000000	      0.00000000	     44.10359902	     -1.79104256	    -11.21204678	      0.00000000	    -40.69367905	    -14.69985985	      0.00000000	    -28.29332091	      0.42426618	      1.31874571	     56.44801283	      4.47186857	     63.17324143	    129.62128127	     96.31251795	     71.77958870	     16.52178959	     76.75649240	    125.87970433	     72.85627291
      2.30000000	     -0.27982673	      4.49165183	     -4.20826971	     -0.01122705	      0.81746399	      0.09138367	     34.45730188	      3.36858057	     -8.41367614	     67.34637995	    -46.56387329	    -35.00000000	      0.00000000	     43.51708139	     -1.44141128	    -11.70700094	      0.00000000	    -43.21944027	    -15.51326506	      0.00000000	    -28.34466252	     -0.04940154	      1.68312789	     56.25528466	      4.33966730	     62.69022260	    129.54569998	     96.17450933	     71.14946175	     16.89916502	     76.75148428	    125.66000733	     72.87284508
      2.31666670	     -0.11415535	      4.61823794	     -4.57878011	     -0.01261076	      0.82195155	      0.09219119	     33.94309978	      3.15240264	     -8.79245814	     66.54312929	    -50.00000000	    -35.00000000	      0.00000000	     43.76102078	     -1.50053795	    -10.61543832	      0.00000000	    -40.60744014	    -16.74255682	      0.00000000	    -27.85628862	     -0.32742398	      1.88770402	     56.41213490	      4.30037415	     62.45465117	    129.51535171	     96.08461257	     70.62748803	     16.91929912	     76.15450036	    125.50708849	     72.87088351
      2.33333330	     -0.24383348	      4.88233617	     -4.78223231	     -0.01144837	      0.83054955	      0.09284491	     33.65954220	      2.91629983	     -8.89656079	     65.14426605	    -50.00000000	    -35.00000000	      0.00000000	     44.04805787	     -1.53041107	     -9.12291466	      0.00000000	    -39.67656927	    -15.88931645	      0.00000000	    -27.17668197	     -0.63570186	      2.15836409	     56.67462504	      4.20067738	     61.99567847	    129.29230252	     95.98686204	     70.10920632	     16.90896253	     75.50896210	    125.31852987	     72.87049268
      2.35000000	      0.50116800	      4.49548888	     -4.75723782	     -0.01626707	      0.83678625	      0.09419764	     32.17189917	      3.01359991	     -9.80294392	     63.57392827	    -50.00000000	    -35.00000000	      0.00000000	     43.63657743	     -1.97154248	     -9.02105583	      0.00000000	    -37.23729095	    -14.57975647	      0.00000000	    -26.80682827	     -0.07309597	      2.25727911	     56.39322491	      4.31222454	     61.13321764	    128.66531979	     95.75114013	     69.76869013	     16.52964092	     73.94502547	    124.73817872	     72.83656704
      2.36666670	      1.14119287	      5.26656720	     -4.47417587	     -0.01839002	      0.84613550	      0.09398153	     30.35659653	      1.83231724	     -9.92254234	     62.98972127	    -50.00000000	    -32.71477352	      0.00000000	     43.12553355	     -1.19746854	     -9.79744248	      0.00000000	    -36.19592627	    -10.74936219	      0.00000000	    -26.42721809	     -0.77079231	      1.66048631	     56.16721946	      4.64025416	     61.82330041	    128.72497672	     95.26628537	     69.97792531	     16.05575092	     73.52367936	    124.77710887	     72.90321076
      2.38333330	      1.10142706	      6.14694818	     -4.19519106	     -0.01134544	      0.85007070	      0.09575044	     26.18276381	      0.98993782	     -8.53447581	     61.23246142	    -50.00000000	    -29.35888963	      0.00000000	     43.16138989	     -0.54271320	    -10.97115663	      0.00000000	    -37.08346872	    -10.78096868	      0.00000000	    -24.91162155	     -1.84438269	      1.38924745	     55.32110366	      4.85834963	     62.30228233	    129.08601728	     95.20099491	     69.27978043	     15.77948110	     73.27463767	    124.34736217	     72.86185426
      2.40000000	      0.80286727	      6.43655363	     -6.75415148	     -0.01422482	      0.85910348	      0.09710299	     27.69081313	      1.86801120	     -6.33383255	     58.34523284	    -50.00000000	    -17.86434988	      0.00000000	     43.21306274	     -2.21624660	    -10.38858639	      0.00000000	    -46.74618401	    -12.99207915	      0.00000000	    -24.16362117	     -2.99459477	      2.98120979	     54.98290434	      4.84788500	     63.61165345	    129.51994617	     95.10841665	     68.94395287	     15.52431925	     73.01428796	    123.90481608	     72.88080420
      2.41666670	      2.19769954	      7.55014422	     -3.01935912	     -0.01748557	      0.87042258	      0.09839363	     10.68980370	      1.25490470	     -0.93633709	     53.37915638	    -32.58077042	    -35.00000000	      0.00000000	     41.72445453	      1.56034791	     -7.24768781	      0.00000000	    -32.72962106	    -10.98149368	      0.00000000	    -24.35599161	     -0.02585460	     -0.66798763	     55.71046083	      7.71343271	     65.76629539	    124.60410139	     95.15920602	     68.34910501	     11.88425461	     70.38405538	    128.19671128	     72.85753663
      2.43333330	      6.52010761	      4.18991119	      0.77010170	     -0.01461987	      0.88407105	      0.09601169	      9.66226597	      3.79462557	     -6.56887420	     54.11831159	    -24.22084195	    -35.00000000	      0.00000000	     36.72330976	      1.71575112	    -11.93786673	      0.00000000	    -30.56502275	     -1.15972045	      0.00000000	    -28.37658028	      4.06082975	     -0.78861019	     56.67474517	      6.20216778	     64.49951705	    126.84974203	     94.90432361	     70.25302045	     14.13746110	     69.55532636	    126.06780857	     72.41473974
